<svg xmlns="http://www.w3.org/2000/svg" xmlns:xlink="http://www.w3.org/1999/xlink" viewBox="0,0,256,256" width="48px" height="48px" fill-rule="nonzero"><g fill-opacity="0" fill="#ffffff" fill-rule="nonzero" stroke="none" stroke-width="1" stroke-linecap="butt" stroke-linejoin="miter" stroke-miterlimit="10" stroke-dasharray="" stroke-dashoffset="0" font-family="none" font-weight="none" font-size="none" text-anchor="none" style="mix-blend-mode: normal"><path d="M0,256v-256h256v256z" id="bgRectangle"></path></g><g fill="none" fill-rule="nonzero" stroke="none" stroke-width="1" stroke-linecap="butt" stroke-linejoin="miter" stroke-miterlimit="10" stroke-dasharray="" stroke-dashoffset="0" font-family="none" font-weight="none" font-size="none" text-anchor="none" style="mix-blend-mode: normal"><g transform="scale(5.33333,5.33333)"><path d="M41,24c0,9.4 -7.6,17 -17,17c-9.4,0 -17,-7.6 -17,-17c0,-9.4 7.6,-17 17,-17c9.4,0 17,7.6 17,17z" fill="#ffffff"></path><path d="M21,41v-5.5c0,-0.3 0.2,-0.5 0.5,-0.5c0.3,0 0.5,0.2 0.5,0.5v5.5h2v-6.5c0,-0.3 0.2,-0.5 0.5,-0.5c0.3,0 0.5,0.2 0.5,0.5v6.5h2v-5.5c0,-0.3 0.2,-0.5 0.5,-0.5c0.3,0 0.5,0.2 0.5,0.5v5.5h1.8c0.2,-0.3 0.2,-0.6 0.2,-1.1v-3.9c0,-2.2 -1.9,-5.2 -4.3,-5.2h-2.5c-2.3,0 -4.3,3.1 -4.3,5.2v3.9c0,0.4 0.1,0.8 0.2,1.1h1.9zM40.1,26.4v0c0,0 -1.3,-0.4 -2.4,-0.4h-0.1c-1.1,0 -2.9,0.3 -2.9,0.3c-0.1,0 -0.1,0 -0.1,-0.1c0,-0.1 0,-0.1 0.1,-0.1c0.1,0 2,-0.3 3.1,-0.3c1.1,0 2.4,0.4 2.5,0.4c0.1,0 0.1,0.1 0.1,0.2c-0.2,-0.1 -0.2,0 -0.3,0zM39.8,27.2v0c0,0 -1.4,-0.4 -2.6,-0.4c-0.9,0 -3,0.2 -3.1,0.2c-0.1,0 -0.1,0 -0.1,-0.1c0,-0.1 0,-0.1 0.1,-0.1c0.1,0 2.2,-0.2 3.1,-0.2c1.3,0 2.6,0.4 2.6,0.4c0.1,0 0.1,0.1 0.1,0.2c0,-0.1 0,0 -0.1,0zM7.8,26.4c-0.1,0 -0.1,0 -0.1,-0.1c0,-0.1 0,-0.1 0.1,-0.2c0.8,-0.2 2.4,-0.5 3.3,-0.5c0.8,0 3.5,0.2 3.6,0.2c0.1,0 0.1,0.1 0.1,0.1c0,0.1 -0.1,0.1 -0.1,0.1c0,0 -2.7,-0.2 -3.5,-0.2c-1.1,0.2 -2.6,0.4 -3.4,0.6zM8.2,27.9c0,0 -0.1,0 -0.1,-0.1c0,-0.1 0,-0.1 0,-0.2c0.1,0 1.4,-0.8 2.9,-1c1.3,-0.2 4,0.1 4.2,0.1c0.1,0 0.1,0.1 0.1,0.1c0,0.1 -0.1,0.1 -0.1,0.1v0c0,0 -2.8,-0.3 -4.1,-0.1c-1.5,0.3 -2.9,1.1 -2.9,1.1z" fill="#455a64"></path><path d="M14.2,23.5c0,-4.4 4.6,-8.5 10.3,-8.5c5.7,0 10.3,4 10.3,8.5c0,4.5 -3.3,7.5 -10.3,7.5c-7,0 -10.3,-3.1 -10.3,-7.5z" fill="#455a64"></path><path d="M28.6,16.3c0,0 1.7,-2.3 4.8,-2.3c1.2,1.2 0.4,4.8 0,5.8zM20.4,16.3c0,0 -1.7,-2.3 -4.8,-2.3c-1.2,1.2 -0.4,4.8 0,5.8zM20.1,35.9c0,0 -2.3,0 -2.8,0c-1.2,0 -2.3,-0.5 -2.8,-1.5c-0.6,-1.1 -1.1,-2.3 -2.6,-3.3c-0.3,-0.2 -0.1,-0.4 0.4,-0.4c0.5,0.1 1.4,0.2 2.1,1.1c0.7,0.9 1.5,2 2.8,2c1.3,0 2.7,0 3.5,-0.9z" fill="#455a64"></path><path d="M24,4c-11,0 -20,9 -20,20c0,11 9,20 20,20c11,0 20,-9 20,-20c0,-11 -9,-20 -20,-20zM24,40c-8.8,0 -16,-7.2 -16,-16c0,-8.8 7.2,-16 16,-16c8.8,0 16,7.2 16,16c0,8.8 -7.2,16 -16,16z" fill="#00bcd4"></path></g></g></svg>